HIERARCHY
ROOT Hips
{
  OFFSET 0.000 72.381 0.000
  CHANNELS 6 Xposition Yposition Zposition Zrotation Xrotation Yrotation
  JOINT LeftUpLeg
  {
    OFFSET 5.318 0.828 2.686
    CHANNELS 6 Xposition Yposition Zposition Zrotation Xrotation Yrotation
    JOINT LeftLeg
    {
      OFFSET 0.000 -37.162 0.000
      CHANNELS 6 Xposition Yposition Zposition Zrotation Xrotation Yrotation
      JOINT LeftFoot
      {
        OFFSET 0.000 -36.048 0.000
        CHANNELS 6 Xposition Yposition Zposition Zrotation Xrotation Yrotation
        End Site
        {
          OFFSET 0.000 0.000 12.100
        }
      }
    }
  }
  JOINT RightUpLeg
  {
    OFFSET -5.318 0.828 2.686
    CHANNELS 6 Xposition Yposition Zposition Zrotation Xrotation Yrotation
    JOINT RightLeg
    {
      OFFSET 0.000 -37.162 0.000
      CHANNELS 6 Xposition Yposition Zposition Zrotation Xrotation Yrotation
      JOINT RightFoot
      {
        OFFSET 0.000 -36.048 0.000
        CHANNELS 6 Xposition Yposition Zposition Zrotation Xrotation Yrotation
        End Site
        {
          OFFSET 0.000 0.000 12.100
        }
      }
    }
  }
  JOINT Spine
  {
    OFFSET 0.000 34.300 0.000
    CHANNELS 6 Xposition Yposition Zposition Zrotation Xrotation Yrotation
    JOINT Spine1
    {
      OFFSET 0.000 23.279 0.000
      CHANNELS 6 Xposition Yposition Zposition Zrotation Xrotation Yrotation
      JOINT LeftShoulder
      {
        OFFSET 0.209 -0.701 1.146
        CHANNELS 6 Xposition Yposition Zposition Zrotation Xrotation Yrotation
        JOINT LeftArm
        {
          OFFSET 12.735 0.000 0.000
          CHANNELS 6 Xposition Yposition Zposition Zrotation Xrotation Yrotation
          JOINT LeftForeArm
          {
            OFFSET 24.910 0.000 0.000
            CHANNELS 6 Xposition Yposition Zposition Zrotation Xrotation Yrotation
            JOINT LeftHand
            {
              OFFSET 22.804 0.000 0.000
              CHANNELS 6 Xposition Yposition Zposition Zrotation Xrotation Yrotation
              JOINT LeftHandThumb1
              {
                OFFSET 4.877 -1.044 3.608
                CHANNELS 6 Xposition Yposition Zposition Zrotation Xrotation Yrotation
                JOINT LeftHandThumb2
                {
                  OFFSET 2.665 -0.000 -0.000
                  CHANNELS 6 Xposition Yposition Zposition Zrotation Xrotation Yrotation
                  JOINT LeftHandThumb3
                  {
                    OFFSET 2.543 0.000 0.000
                    CHANNELS 6 Xposition Yposition Zposition Zrotation Xrotation Yrotation
                    End Site
                    {
                      OFFSET 2.667 -0.000 -0.000
                    }
                  }
                }
              }
              JOINT LeftHandIndex1
              {
                OFFSET 9.232 -0.301 2.144
                CHANNELS 6 Xposition Yposition Zposition Zrotation Xrotation Yrotation
                JOINT LeftHandIndex2
                {
                  OFFSET 4.225 0.000 0.000
                  CHANNELS 6 Xposition Yposition Zposition Zrotation Xrotation Yrotation
                  JOINT LeftHandIndex3
                  {
                    OFFSET 2.654 -0.000 0.000
                    CHANNELS 6 Xposition Yposition Zposition Zrotation Xrotation Yrotation
                    End Site
                    {
                      OFFSET 1.958 0.000 -0.000
                    }
                  }
                }
              }
              JOINT LeftHandMiddle1
              {
                OFFSET 8.920 0.000 -0.000
                CHANNELS 6 Xposition Yposition Zposition Zrotation Xrotation Yrotation
                JOINT LeftHandMiddle2
                {
                  OFFSET 4.863 0.000 -0.000
                  CHANNELS 6 Xposition Yposition Zposition Zrotation Xrotation Yrotation
                  JOINT LeftHandMiddle3
                  {
                    OFFSET 2.765 0.000 0.000
                    CHANNELS 6 Xposition Yposition Zposition Zrotation Xrotation Yrotation
                    End Site
                    {
                      OFFSET 2.006 0.000 -0.000
                    }
                  }
                }
              }
              JOINT LeftHandRing1
              {
                OFFSET 8.689 -0.126 -2.087
                CHANNELS 6 Xposition Yposition Zposition Zrotation Xrotation Yrotation
                JOINT LeftHandRing2
                {
                  OFFSET 4.538 -0.000 -0.000
                  CHANNELS 6 Xposition Yposition Zposition Zrotation Xrotation Yrotation
                  JOINT LeftHandRing3
                  {
                    OFFSET 2.305 0.000 -0.000
                    CHANNELS 6 Xposition Yposition Zposition Zrotation Xrotation Yrotation
                    End Site
                    {
                      OFFSET 1.923 -0.000 -0.000
                    }
                  }
                }
              }
              JOINT LeftHandPinky1
              {
                OFFSET 8.391 -0.817 -3.758
                CHANNELS 6 Xposition Yposition Zposition Zrotation Xrotation Yrotation
                JOINT LeftHandPinky2
                {
                  OFFSET 3.044 0.000 0.000
                  CHANNELS 6 Xposition Yposition Zposition Zrotation Xrotation Yrotation
                  JOINT LeftHandPinky3
                  {
                    OFFSET 1.975 0.000 -0.000
                    CHANNELS 6 Xposition Yposition Zposition Zrotation Xrotation Yrotation
                    End Site
                    {
                      OFFSET 1.667 -0.000 0.000
                    }
                  }
                }
              }
            }
          }
        }
      }
      JOINT RightShoulder
      {
        OFFSET -0.209 -0.701 1.146
        CHANNELS 6 Xposition Yposition Zposition Zrotation Xrotation Yrotation
        JOINT RightArm
        {
          OFFSET -12.735 0.000 0.000
          CHANNELS 6 Xposition Yposition Zposition Zrotation Xrotation Yrotation
          JOINT RightForeArm
          {
            OFFSET -24.910 0.000 0.000
            CHANNELS 6 Xposition Yposition Zposition Zrotation Xrotation Yrotation
            JOINT RightHand
            {
              OFFSET -22.804 0.000 0.000
              CHANNELS 6 Xposition Yposition Zposition Zrotation Xrotation Yrotation
              JOINT RightHandThumb1
              {
                OFFSET -4.877 -1.044 3.608
                CHANNELS 6 Xposition Yposition Zposition Zrotation Xrotation Yrotation
                JOINT RightHandThumb2
                {
                  OFFSET -2.665 -0.000 -0.000
                  CHANNELS 6 Xposition Yposition Zposition Zrotation Xrotation Yrotation
                  JOINT RightHandThumb3
                  {
                    OFFSET -2.543 0.000 0.000
                    CHANNELS 6 Xposition Yposition Zposition Zrotation Xrotation Yrotation
                    End Site
                    {
                      OFFSET -2.667 -0.000 0.000
                    }
                  }
                }
              }
              JOINT RightHandIndex1
              {
                OFFSET -9.232 -0.301 2.144
                CHANNELS 6 Xposition Yposition Zposition Zrotation Xrotation Yrotation
                JOINT RightHandIndex2
                {
                  OFFSET -4.225 0.000 0.000
                  CHANNELS 6 Xposition Yposition Zposition Zrotation Xrotation Yrotation
                  JOINT RightHandIndex3
                  {
                    OFFSET -2.654 -0.000 0.000
                    CHANNELS 6 Xposition Yposition Zposition Zrotation Xrotation Yrotation
                    End Site
                    {
                      OFFSET -1.958 0.000 0.000
                    }
                  }
                }
              }
              JOINT RightHandMiddle1
              {
                OFFSET -8.920 -0.000 0.000
                CHANNELS 6 Xposition Yposition Zposition Zrotation Xrotation Yrotation
                JOINT RightHandMiddle2
                {
                  OFFSET -4.863 0.000 0.000
                  CHANNELS 6 Xposition Yposition Zposition Zrotation Xrotation Yrotation
                  JOINT RightHandMiddle3
                  {
                    OFFSET -2.765 0.000 -0.000
                    CHANNELS 6 Xposition Yposition Zposition Zrotation Xrotation Yrotation
                    End Site
                    {
                      OFFSET -2.006 0.000 -0.000
                    }
                  }
                }
              }
              JOINT RightHandRing1
              {
                OFFSET -8.689 -0.126 -2.087
                CHANNELS 6 Xposition Yposition Zposition Zrotation Xrotation Yrotation
                JOINT RightHandRing2
                {
                  OFFSET -4.538 0.000 0.000
                  CHANNELS 6 Xposition Yposition Zposition Zrotation Xrotation Yrotation
                  JOINT RightHandRing3
                  {
                    OFFSET -2.305 0.000 0.000
                    CHANNELS 6 Xposition Yposition Zposition Zrotation Xrotation Yrotation
                    End Site
                    {
                      OFFSET -1.923 -0.000 0.000
                    }
                  }
                }
              }
              JOINT RightHandPinky1
              {
                OFFSET -8.391 -0.817 -3.758
                CHANNELS 6 Xposition Yposition Zposition Zrotation Xrotation Yrotation
                JOINT RightHandPinky2
                {
                  OFFSET -3.044 0.000 0.000
                  CHANNELS 6 Xposition Yposition Zposition Zrotation Xrotation Yrotation
                  JOINT RightHandPinky3
                  {
                    OFFSET -1.975 0.000 0.000
                    CHANNELS 6 Xposition Yposition Zposition Zrotation Xrotation Yrotation
                    End Site
                    {
                      OFFSET -1.667 0.000 0.000
                    }
                  }
                }
              }
            }
          }
        }
      }
      JOINT Neck
      {
        OFFSET 0.000 0.800 0.000
        CHANNELS 6 Xposition Yposition Zposition Zrotation Xrotation Yrotation
        JOINT Head
        {
          OFFSET 0.000 6.854 0.000
          CHANNELS 6 Xposition Yposition Zposition Zrotation Xrotation Yrotation
          End Site
          {
            OFFSET 0.000 13.197 0.000
          }
        }
      }
    }
  }
}
MOTION
Frames:	4
Frame Time:	0.033333
127.37119 79.19878 -209.14517 -4.12381 2.19019 -93.55817 6.19159 1.17313 1.71848 18.11549 16.88888 -0.76930 -0.00220 -31.55104 -0.00176 -5.10426 2.74672 9.57967 0.00416 -41.53570 0.00242 0.00136 0.01059 5.02845 0.22106 0.09137 1.72211 13.24969 13.98190 -0.27984 -0.00721 -36.22123 0.01901 -21.47434 -5.47432 17.73563 -0.10639 -35.65970 -0.01831 -3.83855 17.04853 11.19551 -0.00407 31.42271 0.01081 -1.85122 0.90808 2.06326 0.00038 23.13752 0.00882 -2.28308 1.32915 1.69925 1.16128 -0.66886 0.33744 -28.27035 8.14782 -14.76318 12.46779 0.00710 0.01317 -44.92453 -6.16518 17.16918 23.32098 0.00595 0.00128 18.67107 -3.50133 -22.85676 23.53897 -0.06613 0.00050 -32.15921 35.07989 -0.51757 4.87700 -1.04399 3.60799 0.00000 -0.00000 0.00000 2.66500 -0.00002 -0.00001 -0.00000 0.00000 0.00000 2.54300 0.00000 0.00000 -0.00000 0.00000 0.00000 9.23200 -0.30100 2.14399 0.00000 0.00000 0.00000 4.22499 0.00000 0.00000 0.00000 0.00000 0.00000 2.65399 -0.00002 0.00001 0.00000 -0.00060 0.00000 8.92000 0.00000 -0.00001 0.00000 0.00000 0.00000 4.86299 0.00000 -0.00001 0.00000 0.00000 0.00000 2.76500 0.00000 0.00001 0.00000 -0.00060 0.00000 8.68900 -0.12600 -2.08699 0.00000 0.00000 0.00000 4.53799 -0.00002 -0.00003 0.00000 0.00000 0.00000 2.30499 0.00000 -0.00002 0.00000 -0.00060 0.00000 8.39100 -0.81699 -3.75801 0.00000 0.00000 0.00000 3.04400 0.00000 0.00001 0.00000 0.00000 0.00000 1.97499 0.00002 -0.00001 0.00000 -0.00060 0.00000 -1.33398 -0.45316 0.34172 17.57568 4.51317 13.94075 -13.08489 -0.00069 -0.01468 104.71805 -15.68775 12.30271 -25.31371 -0.00742 0.00603 -56.16493 -9.12676 10.08728 -23.89013 0.00982 0.00499 23.75563 45.92048 -12.94671 -4.87700 -1.04402 3.60801 40.90540 11.75460 -3.91033 -2.66500 -0.00003 -0.00002 0.00000 0.00000 -5.00000 -2.54300 0.00001 0.00002 -0.00000 0.00000 -60.00000 -9.23199 -0.30104 2.14400 -2.00000 -0.00000 -0.00000 -4.22500 0.00002 0.00000 -2.00000 0.00000 -0.00000 -2.65399 -0.00001 0.00000 -2.00000 -0.00015 -0.00000 -8.92000 -0.00002 0.00002 80.00000 -0.00000 0.00001 -4.86300 0.00000 0.00000 90.00000 -0.00000 0.00001 -2.76501 0.00000 -0.00002 70.00000 -0.00000 0.00001 -8.68899 -0.12603 -2.08697 80.00000 -0.00000 0.00001 -4.53800 0.00000 0.00000 90.00000 -0.00000 0.00001 -2.30500 0.00000 0.00000 70.00000 -0.00000 0.00001 -8.39099 -0.81702 -3.75798 -2.00000 -0.00000 -0.00000 -3.04400 0.00000 0.00000 -2.00000 0.00000 -0.00000 -1.97500 0.00000 0.00002 -2.00000 -0.00015 -0.00000 -0.00015 0.76405 -0.01319 0.00007 -0.00001 0.00000 -0.00619 6.83155 -0.00480 17.35427 5.34806 49.28841 
127.39482 79.21767 -209.15779 -4.07306 2.25109 -93.61362 6.21066 1.17313 1.71848 18.30045 16.75481 -0.75867 -0.00220 -31.56398 -0.00176 -5.10420 2.74673 9.57832 0.00416 -41.53570 0.00242 -0.00958 0.13650 4.96906 0.20005 0.10726 1.72211 13.28386 13.73742 -0.31051 -0.00721 -36.19841 0.01901 -20.53764 -5.18207 17.18468 -0.08342 -35.41838 -0.00131 -2.91170 25.09459 7.93189 -0.00407 31.42271 0.01081 -1.85133 0.92103 2.04150 0.00038 23.14447 0.00882 -2.29703 1.33899 1.68657 1.16128 -0.66886 0.33744 -28.06159 8.07718 -14.76373 12.42301 0.00710 0.01317 -45.12517 -6.29366 17.15351 23.34921 0.00595 0.00128 18.74717 -3.75377 -23.08417 23.93111 -0.04568 0.00050 -35.59859 37.46869 0.92730 4.87700 -1.04399 3.60799 0.00000 -0.00000 0.00000 2.66500 -0.00002 -0.00001 -0.00000 0.00000 0.00000 2.54300 0.00000 0.00000 -0.00000 0.00000 0.00000 9.23200 -0.30100 2.14399 0.00000 0.00000 0.00000 4.22499 0.00000 0.00000 0.00000 0.00000 0.00000 2.65399 -0.00002 0.00001 0.00000 -0.00060 0.00000 8.92000 0.00000 -0.00001 0.00000 0.00000 0.00000 4.86299 0.00000 -0.00001 0.00000 0.00000 0.00000 2.76500 0.00000 0.00001 0.00000 -0.00060 0.00000 8.68900 -0.12600 -2.08699 0.00000 0.00000 0.00000 4.53799 -0.00002 -0.00003 0.00000 0.00000 0.00000 2.30499 0.00000 -0.00002 0.00000 -0.00060 0.00000 8.39100 -0.81699 -3.75801 0.00000 0.00000 0.00000 3.04400 0.00000 0.00001 0.00000 0.00000 0.00000 1.97499 0.00002 -0.00001 0.00000 -0.00060 0.00000 -1.34096 -0.45316 0.34172 17.58981 4.47900 13.82628 -13.14694 -0.00069 -0.01468 104.71828 -15.35773 12.39889 -25.32180 -0.00742 0.00603 -56.32091 -8.64996 9.99111 -23.89688 0.00982 0.00499 22.27251 46.86957 -10.44849 -4.87700 -1.04402 3.60801 40.90540 11.75460 -3.91033 -2.66500 -0.00003 -0.00002 0.00000 0.00000 -5.00000 -2.54300 0.00001 0.00002 -0.00000 0.00000 -60.00000 -9.23199 -0.30104 2.14400 -2.00000 -0.00000 -0.00000 -4.22500 0.00002 0.00000 -2.00000 0.00000 -0.00000 -2.65399 -0.00001 0.00000 -2.00000 -0.00015 -0.00000 -8.92000 -0.00002 0.00002 80.00000 -0.00000 0.00001 -4.86300 0.00000 0.00000 90.00000 -0.00000 0.00001 -2.76501 0.00000 -0.00002 70.00000 -0.00000 0.00001 -8.68899 -0.12603 -2.08697 80.00000 -0.00000 0.00001 -4.53800 0.00000 0.00000 90.00000 -0.00000 0.00001 -2.30500 0.00000 0.00000 70.00000 -0.00000 0.00001 -8.39099 -0.81702 -3.75798 -2.00000 -0.00000 -0.00000 -3.04400 0.00000 0.00000 -2.00000 0.00000 -0.00000 -1.97500 0.00000 0.00002 -2.00000 -0.00015 -0.00000 -0.00015 0.76405 -0.01319 0.00007 -0.00001 0.00000 -0.00619 6.83155 -0.00480 17.44601 5.30404 49.41864 
127.40620 79.23512 -209.16533 -4.02379 2.30258 -93.71140 6.22877 1.17313 1.71413 18.08355 16.56138 -0.65651 -0.00220 -31.55430 -0.00176 -5.10683 2.74628 9.63336 0.00416 -41.53570 0.00242 -0.01966 0.25344 4.94998 0.18387 0.11889 1.71734 13.31093 13.52249 -0.36150 -0.00721 -36.10041 0.01901 -19.78838 -4.90672 16.34152 -0.06152 -35.32512 0.01290 -0.88256 31.27935 3.75534 -0.00407 31.42807 0.01081 -1.85156 0.92885 2.03816 0.00038 23.15644 0.00882 -2.30621 1.34331 1.68050 1.16128 -0.66886 0.33744 -27.91649 8.01328 -14.74607 12.40380 0.00710 0.01317 -45.22940 -6.28391 17.22290 23.10345 0.00595 0.00128 18.59013 -3.72788 -23.10679 24.22252 -0.03468 0.00050 -37.62753 38.86155 0.33982 4.87700 -1.04399 3.60799 0.00000 -0.00000 0.00000 2.66500 -0.00002 -0.00001 -0.00000 0.00000 0.00000 2.54300 0.00000 0.00000 -0.00000 0.00000 0.00000 9.23200 -0.30100 2.14399 0.00000 0.00000 0.00000 4.22499 0.00000 0.00000 0.00000 0.00000 0.00000 2.65399 -0.00002 0.00001 0.00000 -0.00060 0.00000 8.92000 0.00000 -0.00001 0.00000 0.00000 0.00000 4.86299 0.00000 -0.00001 0.00000 0.00000 0.00000 2.76500 0.00000 0.00001 0.00000 -0.00060 0.00000 8.68900 -0.12600 -2.08699 0.00000 0.00000 0.00000 4.53799 -0.00002 -0.00003 0.00000 0.00000 0.00000 2.30499 0.00000 -0.00002 0.00000 -0.00060 0.00000 8.39100 -0.81699 -3.75801 0.00000 0.00000 0.00000 3.04400 0.00000 0.00001 0.00000 0.00000 0.00000 1.97499 0.00002 -0.00001 0.00000 -0.00060 0.00000 -1.34878 -0.45856 0.34172 17.63695 4.46251 13.75981 -13.18826 -0.00069 -0.01468 104.68329 -15.14566 12.51222 -25.32926 -0.00742 0.00603 -56.42913 -8.55177 10.15711 -23.90266 0.00982 0.00499 20.36151 46.82082 -7.99390 -4.87700 -1.04402 3.60801 40.90540 11.75460 -3.91033 -2.66500 -0.00003 -0.00002 0.00000 0.00000 -5.00000 -2.54300 0.00001 0.00002 -0.00000 0.00000 -60.00000 -9.23199 -0.30104 2.14400 -2.00000 -0.00000 -0.00000 -4.22500 0.00002 0.00000 -2.00000 0.00000 -0.00000 -2.65399 -0.00001 0.00000 -2.00000 -0.00015 -0.00000 -8.92000 -0.00002 0.00002 80.00000 -0.00000 0.00001 -4.86300 0.00000 0.00000 90.00000 -0.00000 0.00001 -2.76501 0.00000 -0.00002 70.00000 -0.00000 0.00001 -8.68899 -0.12603 -2.08697 80.00000 -0.00000 0.00001 -4.53800 0.00000 0.00000 90.00000 -0.00000 0.00001 -2.30500 0.00000 0.00000 70.00000 -0.00000 0.00001 -8.39099 -0.81702 -3.75798 -2.00000 -0.00000 -0.00000 -3.04400 0.00000 0.00000 -2.00000 0.00000 -0.00000 -1.97500 0.00000 0.00002 -2.00000 -0.00015 -0.00000 -0.00015 0.76405 -0.01319 0.00007 -0.00001 0.00000 -0.00619 6.83155 -0.00480 17.53139 5.27296 49.55116 
127.39802 79.31483 -209.14909 -3.98801 2.32393 -93.88267 6.27881 1.17313 1.70665 17.95644 16.39357 -0.50217 -0.00220 -31.55659 -0.00176 -5.10808 2.74607 9.65942 0.00416 -41.53570 0.00242 -0.03170 0.39706 4.89360 0.14890 0.11951 1.70919 13.26168 13.36119 -0.39958 -0.00721 -36.08243 0.01901 -19.07921 -4.66855 15.12146 -0.03599 -35.33967 0.02954 1.65976 34.83804 -0.70318 -0.00407 31.40925 0.01081 -1.85778 0.92947 2.04042 0.00038 23.14416 0.00882 -2.31069 1.33326 1.70138 1.16128 -0.66887 0.33744 -27.65282 7.90157 -14.71035 12.38877 0.00710 0.01317 -45.55281 -6.22334 17.24727 22.97630 0.00595 0.00128 18.50933 -3.66991 -23.01646 24.40808 -0.02696 0.00025 -38.69068 39.58662 0.42664 4.87700 -1.04399 3.60799 0.00000 -0.00000 0.00000 2.66500 -0.00002 -0.00001 -0.00000 0.00000 0.00000 2.54300 0.00000 0.00000 -0.00000 0.00000 0.00000 9.23200 -0.30100 2.14399 0.00000 0.00000 0.00000 4.22499 0.00000 0.00000 0.00000 0.00000 0.00000 2.65399 -0.00002 0.00001 0.00000 -0.00060 0.00000 8.92000 0.00000 -0.00001 0.00000 0.00000 0.00000 4.86299 0.00000 -0.00001 0.00000 0.00000 0.00000 2.76500 0.00000 0.00001 0.00000 -0.00060 0.00000 8.68900 -0.12600 -2.08699 0.00000 0.00000 0.00000 4.53799 -0.00002 -0.00003 0.00000 0.00000 0.00000 2.30499 0.00000 -0.00002 0.00000 -0.00060 0.00000 8.39100 -0.81699 -3.75801 0.00000 0.00000 0.00000 3.04400 0.00000 0.00001 0.00000 0.00000 0.00000 1.97499 0.00002 -0.00001 0.00000 -0.00060 0.00000 -1.35713 -0.46445 0.34172 17.67498 4.43831 13.66586 -13.24794 -0.00069 -0.01468 104.65012 -14.87692 12.62795 -25.33776 -0.00742 0.00603 -56.50914 -8.63440 10.40794 -23.91008 0.00982 0.00585 18.93255 46.09235 -5.93014 -4.87700 -1.04402 3.60801 40.90540 11.75460 -3.91033 -2.66500 -0.00003 -0.00002 0.00000 0.00000 -5.00000 -2.54300 0.00001 0.00002 -0.00000 0.00000 -60.00000 -9.23199 -0.30104 2.14400 -2.00000 -0.00000 -0.00000 -4.22500 0.00002 0.00000 -2.00000 0.00000 -0.00000 -2.65399 -0.00001 0.00000 -2.00000 -0.00015 -0.00000 -8.92000 -0.00002 0.00002 80.00000 -0.00000 0.00001 -4.86300 0.00000 0.00000 90.00000 -0.00000 0.00001 -2.76501 0.00000 -0.00002 70.00000 -0.00000 0.00001 -8.68899 -0.12603 -2.08697 80.00000 -0.00000 0.00001 -4.53800 0.00000 0.00000 90.00000 -0.00000 0.00001 -2.30500 0.00000 0.00000 70.00000 -0.00000 0.00001 -8.39099 -0.81702 -3.75798 -2.00000 -0.00000 -0.00000 -3.04400 0.00000 0.00000 -2.00000 0.00000 -0.00000 -1.97500 0.00000 0.00002 -2.00000 -0.00015 -0.00000 -0.00015 0.76405 -0.01319 0.00007 -0.00001 0.00000 -0.00619 6.83155 -0.00480 17.57192 5.35874 49.47281 
